<svg width="21" height="18" viewBox="0 0 21 18" fill="none" xmlns="http://www.w3.org/2000/svg">
<path d="M16.4255 6.66211C13.6257 8.26781 14.1025 12.9548 17.1395 12.9548C18.4493 12.9548 19.5828 11.9701 20.0875 10.7113C21.2531 7.80396 18.8292 5.28303 16.4255 6.66211Z" fill="#FF7236"/>
<path d="M13.5497 7.24252C16.9089 7.24252 17.9147 1.53816 14.7233 0.60034C13.2693 0.173202 11.6159 1.1981 11.0848 3.07162C10.489 5.17154 11.6612 7.24252 13.5497 7.24252Z" fill="#FF7236"/>
<path d="M12.6854 17.3964C12.2188 17.2674 11.3909 17.1844 10.5242 17.1724C9.60815 17.1589 8.64902 17.2246 8.02845 17.3964C6.35239 17.8633 4.07178 16.7337 4.57217 14.3876C5.03503 12.2187 6.69804 12.3423 7.0913 10.2868C7.48754 8.2095 9.02741 7.20696 10.5242 7.28533C11.9096 7.35805 13.2579 8.35706 13.6252 10.2873C14.0162 12.3442 15.6758 12.2194 16.138 14.3876C16.6402 16.7356 14.3548 17.8591 12.6854 17.3964Z" fill="#FF7236"/>
<path d="M7.63718 7.24269C8.58737 7.24269 9.40342 6.69082 9.85688 5.84619C11.2049 3.33466 8.99093 -0.142223 6.46334 0.602387C3.26643 1.5428 4.2798 7.24269 7.63718 7.24269Z" fill="#FF7236"/>
<path d="M6.11894 11.0872C7.19755 8.44816 4.64088 5.22449 2.19912 6.2388C-0.742119 7.46044 0.555102 12.7294 3.78911 12.7294C4.82698 12.7294 5.70896 12.0905 6.11894 11.0872Z" fill="#FF7236"/>
<path d="M12.6854 17.3964C12.2189 17.2674 11.3909 17.1843 10.5243 17.1723V7.28528C11.9096 7.358 13.2579 8.35701 13.6253 10.2873C14.0163 12.3441 15.6759 12.2194 16.138 14.3876C16.6402 16.7355 14.3548 17.859 12.6854 17.3964Z" fill="#FF7236"/>
</svg>
